<?xml version="1.0" encoding="UTF-8" standalone="no"?>
<!-- Created with Inkscape (http://www.inkscape.org/) -->

<svg
   xmlns:dc="http://purl.org/dc/elements/1.1/"
   xmlns:cc="http://creativecommons.org/ns#"
   xmlns:rdf="http://www.w3.org/1999/02/22-rdf-syntax-ns#"
   xmlns:svg="http://www.w3.org/2000/svg"
   xmlns="http://www.w3.org/2000/svg"
   xmlns:sodipodi="http://sodipodi.sourceforge.net/DTD/sodipodi-0.dtd"
   xmlns:inkscape="http://www.inkscape.org/namespaces/inkscape"
   version="1.1"
   id="svg923"
   width="200"
   height="150.66667"
   viewBox="0 0 200 150.66667"
   sodipodi:docname="skirt.svg"
   inkscape:version="0.92.2 5c3e80d, 2017-08-06">
  <metadata
     id="metadata929">
    <rdf:RDF>
      <cc:Work
         rdf:about="">
        <dc:format>image/svg+xml</dc:format>
        <dc:type
           rdf:resource="http://purl.org/dc/dcmitype/StillImage" />
        <dc:title></dc:title>
      </cc:Work>
    </rdf:RDF>
  </metadata>
  <defs
     id="defs927" />
  <sodipodi:namedview
     pagecolor="#ffffff"
     bordercolor="#666666"
     borderopacity="1"
     objecttolerance="10"
     gridtolerance="10"
     guidetolerance="10"
     inkscape:pageopacity="0"
     inkscape:pageshadow="2"
     inkscape:window-width="1305"
     inkscape:window-height="758"
     id="namedview925"
     showgrid="false"
     inkscape:zoom="1.5663716"
     inkscape:cx="-9.4887043"
     inkscape:cy="75.333336"
     inkscape:window-x="0"
     inkscape:window-y="0"
     inkscape:window-maximized="0"
     inkscape:current-layer="svg923" />
  <g
     id="g943"
     transform="matrix(0.11991695,0,0,0.11997723,79.137967,33.817874)"
     >
    <path
       
       d="M 51.305085,146.06432 C 28.405674,143.18638 4.6385849,133.34613 4.6384574,126.74301 4.6384358,125.62284 3.7196938,123.39468 2.5968085,121.79154 0.17169263,118.3292 1.1113167,116.16463 9.1061677,106.79621 20.758077,93.142419 24.960181,80.720886 32.115611,38.779662 38.834679,-0.60383799 39.601839,-2.8336632 46.113473,-1.9064675 c 26.721265,3.8048588 36.585921,4.6849797 52.440172,4.6786928 10.313295,-0.00409 20.851435,-0.546093 23.418105,-1.2044514 2.56667,-0.65835839 7.18735,-1.55741468 10.26818,-1.99790269 5.41935,-0.77484281 5.75171,-0.60417951 10.22022,5.24804479 3.55275,4.6528956 4.99113,8.256943 6.23241,15.616092 3.2072,19.014419 16.11052,48.569495 34.97052,80.099992 15.15398,25.3347 18.38798,32.5311 15.45447,34.38978 -2.66115,1.68611 -4.60921,1.44232 -6.47913,-0.81078 -2.21324,-2.66679 -4.29606,-2.52208 -9.71462,0.67496 -7.01902,4.14132 -23.12082,9.28558 -35.61872,11.3796 -14.65783,2.45589 -76.163463,2.38976 -95.999995,-0.1032 z m 82.825345,-17.24169 c 12.28157,-2.15088 26.9676,-6.79891 35.20023,-11.14062 9.76246,-5.14851 9.57757,-4.46262 3.71238,-13.77232 C 158.88739,81.440671 143.8816,50.547625 136.83266,29.361878 l -2.85548,-8.582216 H 104.3078 c -20.086771,0 -32.793789,-0.607804 -39.343075,-1.881863 -5.320531,-1.035024 -10.020802,-1.534754 -10.445046,-1.11051 -0.424244,0.424244 -3.057182,13.571083 -5.850974,29.215197 -7.614995,42.640922 -10.94357,53.998034 -19.802896,67.567594 -3.71716,5.69346 -4.280983,7.35242 -2.80819,8.26265 3.512364,2.17076 20.610492,5.72927 31.901931,6.63952 22.013035,1.77456 64.39258,1.41313 76.17088,-0.64962 z"
       id="path949"
       inkscape:connector-curvature="0" />
    <path
       
       d="M 60.777049,146.65078 C 34.184041,143.72333 5.9717514,132.85664 5.9717514,125.54111 c 0,-1.3399 -1.2553929,-3.26974 -2.7897621,-4.28852 C 0.45684016,119.44316 0.58068087,119.17525 8.5289961,109.68532 22.855397,92.580236 26.512846,81.976091 34.594455,34.112995 c 2.600267,-15.4 5.396696,-29.6500005 6.214287,-31.6666672 1.765535,-4.3548582 4.926677,-4.6601871 15.829676,-1.52895936 5.084011,1.46007486 15.512688,2.31771916 34,2.79612656 25.971892,0.6720905 33.517932,-0.052603 43.443782,-4.17217485 3.74502,-1.55430815 11.4236,9.96828225 12.52679,18.79785585 2.11759,16.948619 16.32764,50.694081 32.85968,78.033877 17.70589,29.281037 21.64108,36.976107 19.35736,37.852447 -1.10256,0.4231 -3.70401,-0.48713 -5.781,-2.0227 l -3.77635,-2.79198 -10.64846,5.35783 c -5.85666,2.94681 -16.34847,6.94215 -23.31514,8.87853 -12.01592,3.33982 -14.4819,3.53906 -48,3.87832 -19.433329,0.1967 -40.370945,-0.19692 -46.528031,-0.87472 z m 87.194701,-19.00031 c 14.13221,-4.21848 31.33333,-12.47493 31.33333,-15.03986 0,-0.99202 -2.7015,-6.0183 -6.00334,-11.16951 -12.46971,-19.454009 -28.1835,-52.248839 -35.13548,-73.328105 l -2.85828,-8.666667 -31.66812,-0.0822 c -24.879335,-0.06459 -33.521454,-0.555052 -40.313549,-2.287899 -4.754993,-1.213128 -9.152002,-1.699125 -9.771132,-1.079996 -0.61913,0.619131 -3.190866,12.748683 -5.714968,26.954561 -8.033034,45.210662 -12.601108,60.580596 -21.764778,73.230676 -5.149684,7.10893 -4.49862,7.90057 9.273193,11.27553 15.070296,3.69317 26.75052,4.43352 64.623125,4.09616 34.723959,-0.30932 36.425349,-0.44766 47.999999,-3.90269 z"
       id="path947"
       inkscape:connector-curvature="0" />
    <path
       
       d="M 61.760462,146.12393 C 61.399807,145.76328 56.195774,144.61121 50.195943,143.56377 27.475702,139.59734 10.031055,131.9495 7.2961877,124.75626 6.6490578,123.05418 5.0871005,121.08376 3.8251713,120.37755 1.8009679,119.24475 2.218691,118.35956 7.3721115,112.86126 22.966591,96.223158 27.349735,84.519383 35.365846,38.112995 38.279346,21.246328 41.208569,5.847335 41.875229,3.8930104 42.54189,1.9386857 42.858766,0.11112069 42.579401,-0.16824531 41.657882,-1.0897637 47.940095,-0.55634906 49.445666,0.41476057 56.986519,5.2786939 112.26811,7.3428003 127.72486,3.3375528 l 8.13802,-2.1087753 3.71943,4.4421086 c 2.04568,2.4431597 3.96651,5.6421089 4.26852,7.1087749 6.33575,30.768994 16.47825,54.800947 38.88573,92.137009 9.11268,15.18385 16.56852,27.87386 16.56852,28.20003 0,0.32616 -2.13429,-0.66624 -4.74288,-2.20533 -5.94617,-3.50833 -6.10298,-3.50122 -12.06836,0.54699 -2.71132,1.83994 -11.88796,5.47605 -20.39254,8.08024 -8.50459,2.60417 -17.30548,5.29876 -19.55755,5.98796 -4.12287,1.26174 -79.56108,1.81958 -80.783288,0.59737 z m 75.093998,-14.59489 c 12.0291,-2.35726 27.46505,-7.59794 35.33546,-11.9968 l 5.90224,-3.29882 2.71758,2.71757 c 1.49466,1.49466 3.02234,2.41278 3.39486,2.04027 1.2066,-1.20661 -0.84794,-5.68853 -7.82065,-17.06038 -15.21201,-24.809413 -32.77093,-61.231179 -37.19455,-77.151218 -0.91696,-3.3 -2.10082,-6.504778 -2.63081,-7.121727 -0.53,-0.616951 -14.97885,-1.258631 -32.10857,-1.425958 C 80.75009,18.000472 70.938039,17.384663 63.402947,15.655841 57.956773,14.406293 53.046434,13.847973 52.491086,14.415132 51.602691,15.322417 49.272711,26.945007 41.191689,70.779663 38.118326,87.45079 31.895759,104.92417 25.908766,113.69511 c -2.898692,4.24658 -5.270348,8.3427 -5.270348,9.10248 0,2.57996 17.042077,7.53656 31.874191,9.27043 16.413177,1.9187 73.667351,1.55282 84.341851,-0.53898 z"
       id="path945"
       inkscape:connector-curvature="0" />
  </g>
</svg>
