<?xml version="1.0" encoding="UTF-8" standalone="no"?>
<!-- Created with Inkscape (http://www.inkscape.org/) -->

<svg
   xmlns:dc="http://purl.org/dc/elements/1.1/"
   xmlns:cc="http://creativecommons.org/ns#"
   xmlns:rdf="http://www.w3.org/1999/02/22-rdf-syntax-ns#"
   xmlns:svg="http://www.w3.org/2000/svg"
   xmlns="http://www.w3.org/2000/svg"
   xmlns:sodipodi="http://sodipodi.sourceforge.net/DTD/sodipodi-0.dtd"
   xmlns:inkscape="http://www.inkscape.org/namespaces/inkscape"
   version="1.1"
   id="svg2"
   width="18.666668"
   height="33.333332"
   viewBox="0 0 18.666668 33.333332"
   sodipodi:docname="dress.svg"
   inkscape:version="0.92.2 5c3e80d, 2017-08-06">
  <metadata
     id="metadata8">
    <rdf:RDF>
      <cc:Work
         rdf:about="">
        <dc:format>image/svg+xml</dc:format>
        <dc:type
           rdf:resource="http://purl.org/dc/dcmitype/StillImage" />
        <dc:title></dc:title>
      </cc:Work>
    </rdf:RDF>
  </metadata>
  <defs
     id="defs6" />
  <sodipodi:namedview
     pagecolor="#ffffff"
     bordercolor="#666666"
     borderopacity="1"
     objecttolerance="10"
     gridtolerance="10"
     guidetolerance="10"
     inkscape:pageopacity="0"
     inkscape:pageshadow="2"
     inkscape:window-width="1204"
     inkscape:window-height="764"
     id="namedview4"
     showgrid="false"
     inkscape:zoom="13.874465"
     inkscape:cx="13.199671"
     inkscape:cy="13.446442"
     inkscape:window-x="74"
     inkscape:window-y="0"
     inkscape:window-maximized="0"
     inkscape:current-layer="svg2" />
  <g
     id="g82"
     style="fill:#000000">
    <path
       style="fill:#000000;stroke-width:0.09431926"
       d="M 11.013721,33.622441 C 9.2250677,33.55662 7.0801294,33.376606 5.4085118,33.152023 2.0414234,32.699652 0.92092449,32.326091 0.58575392,31.544169 0.49168401,31.324713 0.30592793,31.073876 0.1729626,30.986754 c -0.13296534,-0.08712 -0.24175515,-0.21061 -0.24175515,-0.274417 0,-0.202023 0.33430783,-0.428208 0.63290382,-0.428208 H 0.85204414 L 0.91648677,27.61961 C 1.0412007,22.463044 1.13055,20.960322 1.3871206,19.704247 1.7197778,18.075681 2.2774718,16.296702 3.0913819,14.26785 L 3.7886554,12.52974 3.2683205,11.492223 C 2.8231472,10.604572 2.7565204,10.404188 2.8070707,10.104983 2.8524269,9.8365216 2.7967896,9.5816096 2.5676246,9.007921 1.8935012,7.3203284 1.7973637,6.5652117 1.8360412,3.2616607 l 0.028711,-2.45230085 h 0.4244367 c 0.2334402,0 0.4881022,-0.0424437 0.5659156,-0.0943193 C 2.9329181,0.66316499 3.6566125,0.59931242 4.4633146,0.573146 5.6943244,0.53321661 5.9741191,0.49669275 6.2042835,0.34588323 L 6.4785212,0.1661958 6.9257475,0.66552081 c 0.521052,0.58175089 0.7396397,0.99849859 0.7396397,1.41015809 0,0.2343436 0.052864,0.3147165 0.2583965,0.39286 0.4402705,0.1673904 0.826755,0.025981 1.2570147,-0.4599265 C 9.8881508,1.2097751 9.898126,1.1806429 9.5613365,0.89725333 9.2349795,0.6226418 9.1691799,0.24044896 9.4338734,0.15689133 9.7167048,0.06760798 11.358407,-0.08332523 12.065349,-0.08503869 l 0.67435,-0.0016345 0.484535,0.53015825 c 0.685042,0.74954564 0.799967,0.99801144 0.651514,1.40855504 -0.09568,0.2646013 -0.09439,0.4121007 0.0068,0.7739426 0.291134,1.0413817 0.319492,1.4218406 0.328585,4.4084485 0.01022,3.3551698 -0.0097,3.5551378 -0.518053,5.1929908 l -0.294414,0.948625 0.84079,1.362197 c 2.190183,3.548404 3.566219,6.463049 4.172694,8.838376 0.553471,2.167734 0.390025,7.637405 -0.273014,9.136315 -0.194159,0.438928 -0.517741,0.650657 -1.419064,0.928534 -0.410462,0.126545 -0.971624,0.165388 -2.688099,0.186071 -1.193139,0.01438 -2.551336,0.01208 -3.018217,-0.0051 z m 4.802608,-2.375668 c 0.821829,-0.285085 0.92109,-0.609811 1.101522,-3.603583 0.115712,-1.919911 0.05217,-3.837861 -0.160928,-4.857442 -0.200325,-0.958466 -0.892476,-2.975378 -1.37597,-4.009542 -0.732615,-1.567022 -2.855034,-4.967102 -3.369497,-5.397881 -0.107812,-0.09028 -0.196021,-0.241192 -0.196021,-0.335373 0,-0.09418 -0.106109,-0.31506 -0.235798,-0.490844 -0.129689,-0.175784 -0.235798,-0.394941 -0.235798,-0.487017 0,-0.09208 -0.08811,-0.336447 -0.195794,-0.543047 -0.272179,-0.522187 -0.218668,-0.811126 0.148634,-0.802569 0.155627,0.0036 0.364417,0.02485 0.463978,0.04716 0.150045,0.03362 0.210315,-0.05627 0.352211,-0.525349 0.318827,-1.0539709 0.408001,-2.0849662 0.399741,-4.6216438 -0.0097,-2.9745037 -0.0764,-3.3428127 -0.629093,-3.4730175 -0.38476,-0.090643 -1.011274,-0.01409 -1.011274,0.1235663 0,0.04656 0.08964,0.2365858 0.199204,0.4222802 0.253128,0.4290185 0.159752,0.6917283 -0.463893,1.3051485 C 9.5659128,5.0221823 8.0611175,4.9684313 6.8627965,3.8638576 6.6231237,3.642935 6.3689063,3.3230756 6.2978688,3.153059 6.1484103,2.7953543 6.0541465,2.7657825 4.9092348,2.7174268 4.307977,2.6920326 4.0394916,2.6400266 3.9114557,2.5241557 3.8151113,2.4369653 3.7032026,2.3656277 3.6627696,2.3656277 c -0.040433,0 -0.052605,1.2626991 -0.027048,2.805998 0.052088,3.1454347 0.080142,3.3292277 0.7634537,5.0016373 0.2272389,0.556169 0.441759,1.171291 0.4767112,1.366938 0.034952,0.195647 0.2100083,0.661331 0.3890132,1.034851 0.1790051,0.37352 0.3250076,0.786435 0.3244503,0.917588 -5.565e-4,0.131152 -0.3791676,1.178077 -0.8413561,2.326499 -1.1542286,2.867966 -1.6786759,4.82808 -1.8892198,7.060928 -0.053807,0.570632 -0.097867,2.53062 -0.09791,4.355529 -6.62e-5,2.785531 0.022054,3.34015 0.1378338,3.455929 0.168725,0.168725 0.9616953,0.311804 2.7209405,0.490949 1.8356719,0.186929 2.0773936,0.195231 6.1486366,0.211185 3.158084,0.01237 3.639279,-0.0051 4.048054,-0.146886 z M 3.2716704,1.5774137 C 3.2389614,1.4921755 3.1212422,1.4238471 3.0100723,1.425573 2.8110355,1.4286629 2.8113941,1.431583 3.0335249,1.6165698 3.2835284,1.8247685 3.3616597,1.811922 3.2716704,1.5774137 Z"
       id="path86"
       inkscape:connector-curvature="0" />
    <path
       style="fill:#000000;stroke-width:0.09431926"
       d="M 9.0330165,33.48177 C 8.3067582,33.436777 6.8742128,33.293902 5.8495822,33.164271 2.0170308,32.679392 0.75957803,32.257205 0.55327533,31.386051 0.51665143,31.231399 0.37375015,31.054 0.2113759,30.961614 -0.12146036,30.77224 -0.12421913,30.75647 0.12811027,30.485626 0.268371,30.335074 0.41081597,30.282476 0.62328641,30.302782 l 0.29827332,0.02851 0.0662751,-3.395493 C 1.0758768,22.425122 1.1906888,20.682518 1.4849756,19.390255 1.8230755,17.9056 2.3904197,16.153498 3.1590658,14.220242 l 0.6680331,-1.680199 -0.537749,-1.10758 C 2.8422363,10.511562 2.7665915,10.285455 2.8405417,10.090951 2.9334252,9.8466486 2.9200637,9.7951899 2.4479518,8.5789762 1.9540908,7.3067344 1.8733607,6.6158841 1.8688755,3.6235141 1.8666077,2.1106389 1.8976519,0.83979907 1.9378624,0.79942561 1.9780729,0.75905216 2.1614831,0.7804447 2.3454406,0.84696461 2.6294307,0.94965673 2.7038052,0.94642073 2.8382462,0.82552279 2.9573891,0.71838183 3.3584705,0.6670232 4.4585322,0.61804456 5.4444789,0.57414671 5.9884973,0.5102437 6.1293807,0.42177866 6.4663579,0.21018018 6.559474,0.25807217 7.0746989,0.90797969 7.5216773,1.4718008 7.6069711,1.671868 7.6961311,2.3656277 c 0.012957,0.1008176 0.1580006,0.1495946 0.5046728,0.1697172 0.4432807,0.02573 0.5144096,2.924e-4 0.8008303,-0.2863938 0.1728871,-0.1730477 0.4505692,-0.4868056 0.617071,-0.69724 L 9.921437,1.1691031 9.5951254,0.85283009 C 9.2141724,0.4835957 9.1858736,0.31746909 9.4845832,0.20389973 9.7827198,0.0905486 12.423252,-0.11602182 12.650814,-0.04379638 c 0.199668,0.0633723 1.011291,0.99841761 1.174402,1.35299188 0.07206,0.1566409 0.06799,0.3047619 -0.01465,0.5332955 -0.09719,0.2687648 -0.08454,0.420762 0.08398,1.0092725 0.160304,0.5598386 0.214398,1.1183857 0.281765,2.9093576 0.126507,3.3632228 -0.05938,5.3192169 -0.654305,6.8849319 l -0.188805,0.496894 0.876365,1.425907 c 2.0587,3.349647 2.950483,5.154838 3.831756,7.756418 0.556474,1.642749 0.613123,2.113843 0.60546,5.03496 -0.0072,2.730487 -0.131505,4.003746 -0.483089,4.9468 -0.198164,0.531534 -0.429872,0.726742 -1.207853,1.017582 -0.539654,0.201743 -0.705974,0.212196 -3.584132,0.22526 -1.660019,0.0075 -3.6124281,-0.02311 -4.3386865,-0.0681 z m 6.2069205,-2.068063 c 0.810138,-0.117134 1.178633,-0.306831 1.336134,-0.687826 0.261035,-0.631441 0.375383,-2.079172 0.377578,-4.780438 0.0021,-2.638362 -0.0026,-2.706076 -0.257456,-3.659696 -0.289294,-1.082556 -0.784748,-2.462059 -1.243178,-3.461408 -0.645722,-1.407634 -2.774034,-4.846969 -3.29327,-5.321899 -0.137495,-0.125764 -0.249991,-0.296297 -0.249991,-0.378963 0,-0.08267 -0.102395,-0.300991 -0.227544,-0.485165 -0.125151,-0.184173 -0.274856,-0.510561 -0.332681,-0.725307 -0.05783,-0.214744 -0.146426,-0.415963 -0.196892,-0.447152 -0.12097,-0.07476 -0.118476,-0.678164 0.0031,-0.75331 0.05218,-0.03225 0.242108,-0.0054 0.422066,0.05968 0.179959,0.06507 0.353548,0.09197 0.385753,0.05976 0.115651,-0.115651 0.401652,-1.3743307 0.504522,-2.2203873 0.134689,-1.1077496 0.137838,-4.7231839 0.0048,-5.5557265 -0.135005,-0.8450961 -0.259991,-0.9732023 -0.949505,-0.9732023 -0.300152,0 -0.574241,0.046131 -0.609087,0.1025124 -0.03485,0.056382 0.01035,0.2659718 0.100444,0.4657556 0.09163,0.2031913 0.139405,0.4604387 0.108435,0.5838318 C 11.033277,3.5931213 10.433342,4.2193572 9.9608644,4.4480796 9.3641828,4.7369283 8.348908,4.7436418 7.8003325,4.4623661 7.1178722,4.1124427 6.437496,3.512335 6.3762954,3.2063322 6.2992713,2.8212115 6.0956705,2.7379456 5.0892215,2.6799624 4.4430598,2.6427359 4.1565306,2.583531 3.9623718,2.447124 L 3.7020095,2.2642057 3.6086746,2.5096954 c -0.1177669,0.3097501 -0.1175375,3.0266999 3.867e-4,4.542824 0.1085037,1.395045 0.2027113,1.8035429 0.6754448,2.9288266 0.2014556,0.47954 0.4340732,1.137417 0.5169281,1.461949 0.082855,0.324531 0.25771,0.801885 0.388567,1.060785 0.4812006,0.952054 0.4697335,1.027004 -0.5196326,3.396362 -0.7088667,1.697611 -0.944584,2.402984 -1.3395596,4.008569 -0.5378681,2.186446 -0.6101436,3.028001 -0.6138935,7.147997 -0.00283,3.110256 0.016334,3.623223 0.1381924,3.698979 0.374789,0.232996 2.6616765,0.527163 5.0460806,0.649088 2.1845725,0.111707 6.5900125,0.116889 7.3387515,0.0086 z M 3.326701,1.6770971 c 0,-0.1577308 -0.1912505,-0.3489813 -0.3489813,-0.3489813 -0.175417,0 -0.1513187,0.193213 0.042444,0.3402996 0.2111267,0.1602679 0.3065376,0.1629701 0.3065376,0.00868 z"
       id="path84"
       inkscape:connector-curvature="0" />
  </g>
</svg>
