<?xml version="1.0" encoding="UTF-8" standalone="no"?>
<svg
   xmlns:dc="http://purl.org/dc/elements/1.1/"
   xmlns:cc="http://creativecommons.org/ns#"
   xmlns:rdf="http://www.w3.org/1999/02/22-rdf-syntax-ns#"
   xmlns:svg="http://www.w3.org/2000/svg"
   xmlns="http://www.w3.org/2000/svg"
   viewBox="0 0 200 189.33333"
   height="189.33333"
   width="200"
   id="svg2"
   version="1.1">
  <metadata
     id="metadata8">
    <rdf:RDF>
      <cc:Work
         rdf:about="">
        <dc:format>image/svg+xml</dc:format>
        <dc:type
           rdf:resource="http://purl.org/dc/dcmitype/StillImage" />
        <dc:title></dc:title>
      </cc:Work>
    </rdf:RDF>
  </metadata>
  <defs
     id="defs6" />
  <g
     style="fill:#ff0000;fill-opacity:1;stroke:none"
     transform="matrix(0.0952808,0,0,0.0952808,46.185826,45.205731)"
     id="g12">
    <path
       id="path22"
       d="M 71.126824,187.36536 C 63.886939,186.20648 57.465863,184.13902 51.910771,181.1782 33.096181,171.15012 15.055789,146.04852 14.768104,129.49748 14.695285,125.30809 13.146536,120.90782 9.2786199,113.90088 2.4953019,101.61253 -0.79476892,89.953866 1.6405649,86.834733 4.5138131,83.154728 5.7637003,82.708165 13.249455,82.687083 l 7.249454,-0.02042 -3.370576,-3.666666 C 10.718005,72.026553 7.6928985,65.731846 9.3046373,62.720284 11.044757,59.46884 12.635461,59.401068 26.216043,61.999771 c 5.747842,1.099873 10.936338,1.999873 11.529992,2 1.938464,4.09e-4 -9.885055,-13.066777 -15.081631,-16.668006 -2.786876,-1.931307 -5.409032,-4.521034 -5.827015,-5.75495 -0.417984,-1.233914 -1.52432,-3.293482 -2.458526,-4.576816 -1.264586,-1.737181 -1.323214,-2.929485 -0.22947,-4.666666 1.241807,-1.97235 3.9318,-2.390914 17.387576,-2.70552 L 47.45546,29.255626 46.945449,24.887024 C 46.272939,19.126474 48.434245,17.51461 59.229548,15.725772 67.732403,14.316802 69.596701,12.796701 66.55378,9.75378 64.565723,7.7657224 65.529493,2.5671688 68.195875,0.89636332 71.501448,-1.1749719 87.2945,2.027129 106.26651,8.6153274 l 16.2665,5.6486896 0.40016,-5.4653418 c 0.35209,-4.8087199 0.82752,-5.5147594 3.95725,-5.8766645 4.6177,-0.5339661 14.54607,4.5531078 23.87442,12.2327093 l 7.41971,6.108317 13.90773,-1.253285 c 7.64924,-0.689307 14.61168,-1.27349 15.47208,-1.298186 2.94971,-0.08467 9.59101,6.709167 11.13661,11.392373 1.75223,5.30929 0.49506,8.848083 -7.68745,21.639399 -3.85872,6.03215 -5.11235,7.087868 -7.80529,6.573078 C 181.44371,57.979106 180,57.840471 180,58.008338 c 0,0.167868 2.58445,4.159309 5.74323,8.869869 3.15877,4.710561 7.12613,12.86549 8.81634,18.122066 2.75084,8.555129 3.02144,11.556233 2.58027,28.617477 l -0.49285,19.06006 -5.52186,11.50785 c -6.62992,13.81714 -11.9107,19.92582 -25.11828,29.05619 -11.31645,7.82307 -19.96576,11.99592 -28.67352,13.83353 -9.76356,2.06043 -53.937241,2.2539 -66.206506,0.28998 z m 60.107086,-19.36791 c 5.07866,-1.75608 13.47866,-5.9988 18.66668,-9.42827 21.18524,-14.00422 28.47754,-25.71894 30.10081,-48.35544 1.47443,-20.56083 -0.75991,-33.045547 -7.49407,-41.874495 -4.41632,-5.790089 -5.7292,-5.468931 -5.42644,1.32742 l 0.25244,5.666667 -5.44862,0.399343 c -7.15054,0.52408 -8.22792,-0.962334 -11.44087,-15.784396 -2.46361,-11.365225 -2.49011,-12.345736 -0.41905,-15.506574 1.63016,-2.487927 3.05545,-3.212744 5.42637,-2.759514 1.97288,0.37714 3.21551,-0.01202 3.21551,-1.007012 0,-1.889272 -13.87522,-15.341846 -15.82386,-15.341846 -0.79233,0 -1.0274,2.804071 -0.59017,7.040357 0.57188,5.541012 0.25773,7.429504 -1.47512,8.867648 -1.8656,1.548305 -2.73024,1.544455 -5.6632,-0.02521 -1.9038,-1.018887 -4.0554,-3.156094 -4.78134,-4.749356 -0.99296,-2.179316 -5.65611,-4.416152 -18.82643,-9.030719 -9.6286,-3.373633 -17.966499,-6.126868 -18.528661,-6.118298 -0.56216,0.0085 1.079447,3.070708 3.648018,6.804752 3.742693,5.440914 4.399723,7.294411 3.308532,9.333333 -1.930914,3.607942 -5.245159,3.161026 -10.85599,-1.463895 -4.202826,-3.464324 -5.349598,-3.822849 -8.453296,-2.642827 l -3.590828,1.365231 3.3843,2.662091 C 85.855005,41.652694 96,55.985566 96,59.389839 c 0,3.318407 -4.599603,7.474692 -7.177297,6.485539 -0.845804,-0.324566 -3.1819,-3.311999 -5.191326,-6.63874 C 81.379808,55.50901 78.319323,52.50116 75.655605,51.398035 69.956739,49.037964 42.666667,47.145181 42.666667,49.10999 c 0,0.785689 6,8.475148 13.333333,17.087685 14.356919,16.861296 15.954317,20.665293 9.846509,23.448197 -3.149217,1.43488 -3.829172,1.206189 -7.02259,-2.361918 -3.150212,-3.51983 -4.425172,-3.966178 -11.69216,-4.093285 l -8.156394,-0.142662 4.512318,5.911457 c 5.018885,6.575098 5.468246,8.58733 2.472832,11.073306 -1.546951,1.28385 -2.822435,1.33588 -5.281523,0.21545 -2.506964,-1.14225 -4.085136,-1.037404 -6.960515,0.46242 -2.045162,1.06678 -6.268477,1.94329 -9.385144,1.94781 -3.116666,0.005 -5.666666,0.37495 -5.666666,0.82317 0,0.44823 2.485312,3.7834 5.522914,7.41148 5.291999,6.32071 5.56922,7.10891 6.630402,18.85171 1.427908,15.80092 1.677732,16.70155 6.466657,23.31247 2.594896,3.58214 6.761524,6.92928 11.704625,9.40256 16.002638,8.00689 24.230042,9.42548 52.342065,9.02494 17.86099,-0.25448 21.92025,-0.72792 29.90058,-3.48733 z M 58.343819,148.63506 c -4.674964,-4.33488 -10.707434,-17.09471 -10.877879,-23.00882 -0.387915,-13.45985 12.182151,-4.58541 17.806883,12.57162 1.716492,5.23579 2.75114,10.48318 2.299216,11.66087 -1.202067,3.13253 -5.085608,2.61757 -9.22822,-1.22367 z m 60.129951,-2.58032 c -7.83092,-2.15825 -10.87247,-4.30536 -15.26219,-10.77397 -4.48076,-6.60277 -3.14613,-9.40536 4.28379,-8.99551 2.84421,0.1569 8.1713,0.44859 11.83796,0.64821 3.66667,0.19962 7.69392,-0.13421 8.94944,-0.74185 1.66924,-0.80786 3.23578,-0.0862 5.82862,2.68513 8.42696,9.00703 8.91364,13.49046 1.86033,17.13787 -4.54573,2.35068 -9.0767,2.36108 -17.49795,0.0401 z m 29.90528,-54.023698 c -7.70549,-2.774752 -13.60625,-6.58487 -13.67049,-8.82703 -0.023,-0.80446 -1.24189,-2.846265 -2.70856,-4.537347 -3.10793,-3.583469 -3.21868,-4.247986 -1.06667,-6.4 2.26544,-2.26544 5.62614,-2.003222 15.63934,1.220259 10.50534,3.381909 19.15721,11.378205 18.49229,17.09108 -0.33567,2.883913 -1.13209,3.464078 -5.06496,3.689633 -2.56667,0.147201 -7.79609,-0.859265 -11.62095,-2.236595 z"
       style="fill:#ff0000;fill-opacity:1;stroke:none;stroke-width:1.33333337" />
    <path
       id="path20"
       d="M 75.203324,187.39224 C 62.455447,185.41186 52.033081,180.9318 42.067988,173.14896 28.443976,162.50848 17.856665,144.82294 15.931265,129.48899 15.105129,122.90961 13.620689,118.44327 10.761813,113.93529 8.5560248,110.45712 5.1587501,103.44372 3.2123133,98.34996 -0.08118815,89.730965 -0.17358355,88.935208 1.8802603,86.877616 3.3660068,85.389157 7.2318039,84.448812 13.710259,83.999999 l 9.623074,-0.666667 -3.706344,-3.274947 c -2.03849,-1.801221 -5.207492,-5.96079 -7.042226,-9.243488 -2.9529926,-5.283477 -3.1082029,-6.196221 -1.352253,-7.95217 1.75595,-1.755951 3.461401,-1.719673 14.858547,0.316056 7.081206,1.264827 13.179906,1.994697 13.552667,1.621936 1.103151,-1.103151 -7.212672,-10.858175 -14.351069,-16.834779 -3.644294,-3.051174 -6.625988,-6.194474 -6.625988,-6.985111 0,-0.790636 -0.97277,-2.512419 -2.161708,-3.826182 -1.18894,-1.313764 -1.807771,-3.311008 -1.37518,-4.438321 0.649761,-1.693249 3.694677,-2.04966 17.510798,-2.04966 h 16.72427 l -0.832491,-5.206108 c -1.019147,-6.373397 0.600425,-7.519569 12.532949,-8.869581 6.748695,-0.763528 8.268028,-1.37934 8.268028,-3.351176 0,-1.328666 -0.6,-2.786576 -1.333333,-3.2398012 -1.982821,-1.2254512 -1.612585,-6.7750551 0.573001,-8.5889313 1.471686,-1.22139061 3.827712,-1.21112264 10.333334,0.045035 6.77576,1.3083176 30.363245,8.9786375 42.813065,13.9222135 2.04065,0.8103 2.34175,0.289243 2.07987,-3.599293 -0.37415,-5.5555441 0.86171,-7.7790238 4.32374,-7.7790238 4.13355,0 14.53479,5.8588997 22.38434,12.6088328 6.57094,5.650455 7.63573,6.112763 12.66666,5.499593 15.36752,-1.872993 24.90967,-2.157468 27.41384,-0.817274 2.94006,1.573472 9.41215,10.40767 9.41215,12.847286 0,1.191688 -11.93888,20.660928 -14.15192,23.078149 -0.27692,0.302456 -2.00601,-0.134681 -3.84244,-0.971416 -4.98088,-2.269437 -4.36104,0.844035 1.96625,9.876537 10.60446,15.138355 14.5002,32.839961 12.07955,54.887332 -2.50729,22.83656 -12.22775,38.87793 -31.45396,51.90756 -19.29949,13.07929 -31.48864,16.42445 -59.26415,16.26434 -10.63333,-0.0613 -24.191834,-0.86621 -30.130006,-1.7887 z m 56.661016,-18.44228 c 18.24294,-6.6436 35.87462,-20.13002 42.39285,-32.42615 5.94538,-11.21549 7.15129,-17.05923 7.18396,-34.81281 0.0336,-18.300135 -2.16408,-27.404417 -8.30318,-34.39646 -5.59281,-6.36986 -7.70657,-6.07847 -7.39041,1.018792 0.25037,5.620289 0.21223,5.670011 -4.66036,6.075288 -6.01357,0.50018 -6.64824,-0.515548 -9.63331,-15.417197 -2.7449,-13.702836 -1.64269,-17.032156 5.21292,-15.746033 4.01112,0.752491 4.36758,0.566081 3.71191,-1.941187 C 159.46964,37.827874 148.99919,27.251849 143.81,24.568416 l -3.89583,-2.014614 0.87516,8.542075 c 0.62448,6.095249 0.40939,8.829938 -0.75089,9.54703 -2.2324,1.379702 -7.45304,-1.630869 -9.10131,-5.248429 -1.05597,-2.317611 -5.83574,-4.545676 -21.52334,-10.033002 -11.091258,-3.879584 -20.493335,-6.726375 -20.893507,-6.326203 -0.400172,0.400172 1.332468,3.030941 3.850309,5.846156 5.413371,6.05272 7.492361,9.829162 6.67146,12.11857 -0.972771,2.71296 -4.209671,1.9255 -9.473581,-2.304693 -4.592111,-3.69032 -5.29189,-3.863924 -9.888527,-2.453176 l -4.946699,1.518185 9.266891,9.755626 c 9.043976,9.520955 11.743932,14.419885 10.185507,18.481077 -1.447667,3.772558 -5.632824,2.058997 -9.958004,-4.077183 -2.357132,-3.344091 -6.230231,-6.892643 -8.606884,-7.885673 -4.473808,-1.869276 -33.444986,-3.321043 -35.011572,-1.754456 -0.475468,0.475466 5.508473,8.257042 13.297646,17.292389 14.378338,16.678698 15.949488,19.955146 11.009207,22.958399 -2.03186,1.235191 -3.060336,0.67474 -6.450143,-3.514893 -3.446418,-4.259602 -4.420532,-4.776913 -6.698956,-3.557538 -1.60755,0.860336 -5.324773,1.0612 -9.362273,0.505901 l -6.696163,-0.920957 5.479083,6.931559 c 3.013496,3.812358 5.479083,7.796511 5.479083,8.853675 0,2.914056 -3.52638,3.654699 -6.72703,1.412883 -2.580012,-1.807112 -3.09233,-1.755099 -5.395174,0.547745 -1.886888,1.886891 -4.439642,2.544461 -9.877796,2.544461 -8.863194,0 -9.398115,1.68314 -2.85909,8.99616 6.407275,7.16568 7.067956,8.97861 8.105535,22.24191 1.330421,17.00669 6.073849,24.71738 19.264856,31.31601 15.712976,7.86023 24.388147,9.32724 52.822032,8.93252 17.98864,-0.24971 20.99204,-0.63891 29.86434,-3.86997 z M 58.447369,147 c -4.187298,-4.5359 -8.991105,-14.54267 -10.017445,-20.86726 -0.608544,-3.75001 -0.279335,-4.94089 1.561112,-5.64713 3.463317,-1.329 10.663916,7.82177 14.081361,17.89509 4.10857,12.1105 1.41212,16.2423 -5.625028,8.6193 z m 59.748211,-2.34955 c -6.26731,-1.72179 -12.86225,-6.39344 -12.86225,-9.11121 0,-0.7311 -0.95877,-2.3887 -2.13061,-3.68357 -4.496161,-4.9682 0.58094,-6.42306 12.67374,-3.63171 5.2742,1.21743 7.54515,1.19344 10.40577,-0.10995 3.44286,-1.56867 3.95657,-1.34846 8.68849,3.72441 5.95709,6.38633 6.207,8.37497 1.51613,12.06481 -3.9875,3.13657 -8.86829,3.33596 -18.29127,0.74722 z m 28.54521,-54.431648 c -5.52132,-2.274369 -8.32562,-4.506253 -11.71359,-9.322591 -2.44991,-3.482786 -4.09786,-6.90921 -3.6621,-7.614275 1.30696,-2.114711 6.66895,-1.467533 16.0483,1.936987 9.56599,3.472265 16.43556,9.752637 16.53241,15.114409 0.0469,2.598142 -0.61557,2.991676 -4.94581,2.937862 -2.75,-0.03417 -8.26664,-1.407752 -12.25921,-3.052392 z m 27.92588,-49.552136 c 0,-1.1 -0.6,-2 -1.33334,-2 -0.73333,0 -1.33333,0.9 -1.33333,2 0,1.1 0.6,2 1.33333,2 0.73334,0 1.33334,-0.9 1.33334,-2 z"
       style="fill:#ff0000;fill-opacity:1;stroke:none;stroke-width:1.33333337" />
    <path
       id="path18"
       d="M 82,187.95202 C 57.139859,185.23721 36.557859,171.79565 24.206824,150.20882 19.57242,142.10893 18.164968,138.06813 17.072388,129.72583 16.323789,124.00995 14.923897,118.43333 13.961517,117.33333 11.388348,114.3922 1.3333333,93.162316 1.3333333,90.670528 c 0,-4.07879 3.0494275,-5.337196 12.9333337,-5.337196 10.989558,0 12.588748,-1.785181 5.879105,-6.562868 -4.685645,-3.336473 -10.026528,-13.423042 -8.118087,-15.331484 0.862748,-0.862748 4.630738,-0.724441 10.976355,0.402894 17.277947,3.069527 19.662627,3.269393 19.662627,1.647969 0,-0.840367 -5.029491,-6.557431 -11.176647,-12.704585 C 19.866213,41.161451 14.728313,34.15517 16.52214,32.374355 c 0.576745,-0.572562 8.443725,-1.041022 17.482179,-1.041022 9.038453,0 16.881352,-0.446322 17.428664,-0.991826 0.547312,-0.545504 -0.11336,-2.216681 -1.468172,-3.713725 -2.39795,-2.649704 -2.394115,-2.79107 0.144568,-5.329753 1.766414,-1.766415 5.327057,-2.892067 11.035432,-3.488709 C 70.689519,16.8117 71.979263,15.355822 68.917952,9.0349074 65.914256,2.8329542 67.852564,-0.06207181 74.335219,0.94376533 82.155911,2.1572101 117.57649,14.553429 121.77148,17.545137 c 2.07431,1.479324 4.06375,2.397411 4.42097,2.040193 0.35721,-0.357217 -0.0354,-3.193126 -0.87259,-6.302019 -1.24743,-4.6326338 -1.17492,-5.9996841 0.40192,-7.576523 1.67643,-1.6764295 2.93325,-1.4134035 9.76777,2.0441948 4.31408,2.1825009 10.67676,6.4673782 14.13929,9.5219492 7.198,6.349933 6.22601,6.16792 25.89787,4.84962 l 14.86004,-0.995839 4.78462,6.266231 c 2.63155,3.446427 4.37578,6.942917 3.87607,7.769977 -4.757,7.873297 -12.68315,19.533246 -13.70937,20.167482 -1.83486,1.134009 -6.6714,-1.740693 -6.6714,-3.965293 0,-2.048608 -2.42324,-4.052985 -3.54444,-2.93178 -1.33352,1.333518 2.88026,10.935638 8.37672,19.088362 9.05564,13.43194 11.8253,23.55246 11.649,42.565908 -0.27883,30.06709 -8.59376,46.59614 -31.14354,61.9094 -10.14112,6.8867 -22.13561,12.43357 -32.94067,15.23344 C 122.3812,189.4803 99.126715,189.82232 82,187.95202 Z m 41.38653,-15.33676 c 15.84838,-4.09113 36.47727,-16.00481 45.402,-26.22074 2.13298,-2.44156 5.92675,-8.49656 8.4306,-13.45558 4.32987,-8.5755 4.58314,-9.86535 5.17944,-26.37919 0.81344,-22.527002 -1.48112,-32.163879 -9.70088,-40.742491 -7.49313,-7.820268 -9.1986,-7.639888 -8.03102,0.849406 l 0.9169,6.666667 h -4.64913 c -5.33844,0 -5.46169,-0.209945 -8.35951,-14.239176 -2.73081,-13.220701 -1.93894,-15.558999 4.87899,-14.407118 3.09899,0.523572 5.21275,0.353607 5.21275,-0.419156 0,-3.182005 -9.24936,-14.487228 -15.14559,-18.512016 -3.56341,-2.432393 -7.0176,-4.422533 -7.67597,-4.422533 -0.6758,0 -0.81934,4.06424 -0.32962,9.333333 0.74463,8.011951 0.56679,9.333333 -1.25617,9.333333 -1.16799,0 -3.62153,-1.96388 -5.45233,-4.364178 -2.87498,-3.769298 -6.23247,-5.358522 -24.6312,-11.658877 -11.716365,-4.012084 -21.728183,-6.868995 -22.248487,-6.348692 -0.520303,0.520304 2.133202,4.31515 5.896678,8.432993 3.763478,4.117844 6.842686,8.057466 6.842686,8.754717 0,3.14226 -4.326987,2.380259 -9.334432,-1.643835 -4.678768,-3.75996 -5.841664,-4.162108 -8.049134,-2.783521 -1.419138,0.886267 -4.088392,1.611393 -5.931676,1.611393 -1.843284,0 -3.351425,0.344192 -3.351425,0.76487 0,0.420678 3.257775,3.742293 7.239499,7.381364 8.383114,7.661694 15.58759,17.884278 14.535812,20.62517 -1.301522,3.391708 -5.256886,2.004075 -8.551922,-3.000212 -6.231426,-9.463885 -8.648128,-10.383425 -28.652305,-10.90201 -12.770691,-0.331067 -17.904417,-0.02892 -17.904417,1.053765 0,0.834854 6.3,8.83873 14,17.786392 7.7,8.947662 14,17.342298 14,18.654747 0,4.668015 -3.963595,4.122321 -8.543882,-1.176288 -3.864881,-4.471009 -4.72131,-4.904204 -6.604981,-3.340896 -1.569081,1.302223 -4.183873,1.543884 -9.50772,0.878714 -4.03888,-0.504626 -7.343417,-0.556675 -7.343417,-0.115667 0,0.441007 2.4,3.83806 5.333333,7.549005 2.933333,3.710944 5.333333,7.257884 5.333333,7.882087 0,2.358045 -2.770548,2.704074 -5.627669,0.702869 -3.665085,-2.567125 -5.038997,-2.627081 -5.038997,-0.219896 0,2.567056 -2.992047,3.475985 -11.442383,3.475985 C 17.03564,99.999998 16,100.36032 16,102.51349 c 0,1.38242 2.629088,5.73242 5.842419,9.66667 5.658594,6.92811 5.872613,7.53074 6.802089,19.15317 0.527819,6.6 1.723672,13.84364 2.657453,16.09697 3.970678,9.58175 15.433187,18.31848 30.393736,23.16612 12.726766,4.12383 48.945013,5.30907 61.690833,2.01884 z M 58.222105,145.35413 c -3.566537,-4.23859 -8.888772,-17.05452 -8.888772,-21.40415 0,-7.17924 8.827468,1.84902 13.291359,13.59368 1.489013,3.91766 2.707599,8.173 2.707969,9.45634 0.001,3.56713 -3.383252,2.78378 -7.110556,-1.64587 z m 59.336345,-2.00128 c -5.93824,-1.85307 -10.89178,-5.39495 -10.89178,-7.78785 0,-0.74527 -1.02615,-2.4889 -2.28032,-3.87475 -3.57838,-3.95407 -0.15661,-4.87922 9.79199,-2.64749 6.82334,1.53066 9.44543,1.61586 12.12701,0.39405 3.02146,-1.37667 3.86407,-1.1347 7.20932,2.07025 5.04224,4.83078 5.92994,8.09 3.06553,11.25515 -2.77092,3.06183 -10.3487,3.29712 -19.02175,0.59064 z M 150.3776,90.21229 C 141.60059,87.221002 136,83.592883 136,80.898336 c 0,-0.745265 -1.02615,-2.488903 -2.28032,-3.874749 -4.05069,-4.47597 0.3296,-5.047943 11.05133,-1.443072 7.46292,2.509186 10.89728,4.538297 14.57926,8.613801 3.87381,4.287846 4.50732,5.704037 3.23657,7.235204 -1.977,2.382138 -1.51196,2.428502 -12.20924,-1.21723 z m 26.28763,-51.547963 c -1.24572,-2.015612 -4.64839,-1.592974 -5.52291,0.685986 -0.42569,1.109338 -0.0225,2.922436 0.89592,4.029104 1.468,1.768828 1.89843,1.685881 3.55975,-0.685986 1.03941,-1.483961 1.51966,-3.297057 1.06724,-4.029104 z"
       style="fill:#ff0000;fill-opacity:1;stroke:none;stroke-width:1.33333337" />
    <path
       id="path16"
       d="M 87.333333,187.94177 C 67.198195,186.197 50.361736,178.6504 37.237441,165.4873 26.513691,154.73185 19.114081,140.68482 17.841283,128.66666 c -0.465987,-4.4 -2.001254,-9.91992 -3.411702,-12.26649 C 13.019133,114.0536 9.4741123,107.24082 6.5517579,101.26066 -0.18261139,87.479777 0.29719319,86.66665 15.16326,86.666704 l 10.83674,4e-5 3.816629,4.78333 c 2.133474,2.673855 3.30949,5.287587 2.666667,5.926752 -0.63248,0.62888 -4.749963,1.326364 -9.149963,1.549963 -10.537323,0.535484 -11.094137,3.151571 -2.812028,13.211771 5.672956,6.89088 6.025106,7.80978 6.858307,17.89598 1.27168,15.39415 2.639567,19.5211 8.783987,26.50152 9.981045,11.33907 23.558256,16.32479 50.260772,18.45638 23.038059,1.83906 35.397879,0.4348 50.121199,-5.69454 10.82788,-4.50765 25.6596,-14.37056 32.3081,-21.48446 6.39238,-6.83988 12.44278,-19.77656 14.03945,-30.01851 2.18887,-14.04072 0.82868,-34.329018 -2.873,-42.852934 -3.05201,-7.027917 -12.50164,-16.810137 -15.28628,-15.824292 -0.78919,0.279394 -1.22515,3.205996 -0.99876,6.704651 0.31481,4.865342 -0.0908,6.397824 -1.87435,7.082249 -3.63382,1.394433 -6.40848,-3.470171 -8.41254,-14.749198 -2.18755,-12.311605 -1.24627,-14.337047 5.4825,-11.797215 5.0205,1.895023 5.65662,1.496665 4.56368,-2.857916 -1.28953,-5.137913 -8.85617,-14.162204 -15.97329,-19.050402 -9.6216,-6.608333 -10.37057,-6.216681 -9.33892,4.88346 0.96609,10.394792 -0.62105,12.269516 -4.56685,5.394348 -1.97078,-3.433876 -4.99769,-4.889447 -23.60466,-11.350933 -29.089307,-10.101601 -30.952503,-9.824482 -19.343983,2.877089 3.666666,4.011917 6.666666,7.846042 6.666666,8.520278 0,2.318815 -2.989877,1.218347 -7.537041,-2.774116 -4.692141,-4.119754 -7.690331,-4.995493 -9.129625,-2.666666 -0.453226,0.733333 -2.438635,1.342521 -4.412023,1.35375 -1.973388,0.01123 -4.487977,0.642286 -5.587977,1.402348 -1.730707,1.195859 -1.652728,1.59705 0.579137,2.979583 8.63636,5.349808 23.035932,22.317748 21.309795,25.110696 -1.493858,2.417113 -4.007658,0.886758 -7.222266,-4.396783 C 80.508588,47.852956 75.875564,46.298969 55,45.608655 39.194092,45.085986 37.333333,45.257565 37.333333,47.237682 c 0,1.217274 6.055475,9.236772 13.456611,17.821105 15.453184,17.923638 16.832877,19.991326 14.05164,21.058587 C 62.6812,86.946392 57.831392,82.015441 42.181989,63.078664 36.611981,56.338598 29.923236,49.138598 27.318112,47.078665 22.083417,42.939469 16.877349,35.149819 18.063263,33.230973 c 0.41843,-0.677036 8.189962,-1.230974 17.27007,-1.230974 17.374966,0 20.017828,-0.893684 15.946599,-5.392341 C 48.005048,22.988952 50.603123,20.342877 58.442359,19.3129 70.680664,17.704942 72,17.237928 72,14.513814 c 0,-1.4342 -0.913611,-4.001983 -2.030247,-5.7061854 -2.523717,-3.8516775 -1.29076,-7.4742953 2.543874,-7.4742953 4.413458,0 44.992563,14.3403107 49.099053,17.3511847 6.45889,4.735658 7.5436,3.484195 4.83011,-5.57262 -1.14459,-3.8203259 -1.16354,-5.5911465 -0.0715,-6.6831782 2.07795,-2.0779452 14.91236,4.5871202 23.22532,12.0611942 l 6.48036,5.826394 16.73807,-0.965416 16.73807,-0.965416 4.55678,4.974852 c 4.38522,4.787533 5.86188,9.26521 3.36223,10.195227 -0.657,0.244444 -3.70004,4.230095 -6.76232,8.857002 -5.68481,8.58939 -7.64708,9.488258 -10.09517,4.624353 -0.76196,-1.513878 -2.14642,-3.66948 -3.07655,-4.790227 -1.36792,-1.648242 -1.35797,-2.57516 0.052,-4.849553 1.46657,-2.365603 1.42583,-3.012139 -0.25679,-4.074043 -1.77436,-1.119813 -6.28538,-0.612202 -7.93977,0.893436 -0.33355,0.303555 0.16785,2.479018 1.11421,4.834363 0.94636,2.355345 2.77327,7.140404 4.05979,10.633462 1.28651,3.493059 4.24512,9.005079 6.57468,12.248935 11.26051,15.67998 14.64196,30.144315 12.51473,53.532407 -1.27198,13.98505 -1.94017,16.60096 -6.53689,25.59155 -8.63892,16.8966 -24.31947,29.62145 -47.33417,38.41194 -11.3908,4.35074 -13.75998,4.77867 -27.78591,5.01882 -8.43333,0.1444 -19.533332,-0.10147 -24.666665,-0.54623 z m 80.693417,-31.30733 c 0.92762,-1.11772 1.31558,-2.40322 0.86214,-2.85667 -0.96838,-0.96839 -4.88889,2.01381 -4.88889,3.71881 0,1.8366 2.17313,1.37132 4.02675,-0.86214 z M 59.631069,145.66233 C 54.478272,139.96854 48.485833,122.66658 51.666667,122.6667 54.931016,122.66683 64,139.999 64,146.23752 c 0,2.44553 -1.856391,2.20113 -4.368931,-0.57519 z m 57.356301,-3.56808 C 111.09738,139.99248 108,137.66241 108,135.33333 c 0,-0.92041 -0.92543,-2.44152 -2.05651,-3.38023 -3.74552,-3.10851 -0.0576,-3.85202 8.46181,-1.70597 6.79446,1.71153 9.08147,1.80724 11.95029,0.50012 3.26924,-1.48956 3.83664,-1.26831 7.22689,2.81813 4.10652,4.94979 4.48423,6.50124 2.15085,8.83462 -2.10996,2.10996 -12.44878,1.94133 -18.74596,-0.30575 z M 35.961269,92.333332 C 26.102935,84.104129 16.86802,74.293687 14.358955,69.384743 13.06153,66.846352 12,64.596352 12,64.384743 c 0,-1.591336 26.240925,2.452174 29.953412,4.615574 2.160657,1.259094 8.713255,9.053423 8.713255,10.364436 0,0.538894 -4.2,0.56595 -9.333334,0.06012 C 36.2,78.919047 32,78.849997 32,79.271429 c 0,0.421432 2.7,4.081111 6,8.13262 8.968128,11.010443 8.012955,13.319881 -2.038731,4.929279 z M 150.82187,89.321864 c -8.78887,-3.161308 -13.48854,-6.130775 -13.48854,-8.522676 0,-0.993303 -0.92542,-2.574041 -2.0565,-3.512755 -4.13035,-3.427881 0.34593,-3.806436 9.31008,-0.787345 6.57232,2.213531 10.47229,4.493899 13.68942,8.004393 6.99092,7.628419 4.61943,9.161293 -7.45446,4.818383 z"
       style="fill:#ff0000;fill-opacity:1;stroke:none;stroke-width:1.33333337" />
    <path
       id="path14"
       d="m 84,186.66666 c 0,-0.73333 -2.006069,-1.33333 -4.457933,-1.33333 -4.927194,0 -15.324564,-3.3068 -25.512119,-8.11393 C 37.8522,169.58572 20.817475,146.09164 19.157795,129.12414 18.600171,123.42336 17.158099,118.71098 14.733557,114.66666 9.7726389,106.39149 4,93.491169 4,90.679997 4,88.248402 9.4914409,86.711446 18.286939,86.68134 22.443417,86.667112 32,93.257508 32,96.138121 c 0,0.657365 -3.250928,1.195211 -7.224284,1.195211 -3.973355,0 -8.173355,0.364193 -9.333333,0.809318 -3.722632,1.428508 -2.268557,6.75042 3.920136,14.34769 5.840614,7.16997 6.066514,7.78889 7.222732,19.78889 0.656449,6.81309 1.651312,13.58743 2.210805,15.0541 C 32.8794,158.0375 44.274352,167.12509 60,172.21881 c 7.121211,2.30663 13.107953,2.92231 33.572671,3.45263 22.979359,0.59546 25.659809,0.41644 34.650529,-2.31442 10.83669,-3.29154 17.70936,-6.51592 26.01704,-12.20616 6.39888,-4.38282 7.09309,-4.5607 7.09309,-1.81753 0,2.48117 0.5257,2.48612 5.23798,0.0493 4.66628,-2.41302 6.04113,-5.57408 3.13237,-7.2019 -1.93516,-1.08296 -1.76676,-1.72083 1.46981,-5.56728 2.01046,-2.3893 5.49722,-7.99283 7.74835,-12.4523 3.55503,-7.04248 4.26177,-10.29053 5.3774,-24.71351 1.96817,-25.444885 -1.27995,-37.706226 -12.54241,-47.346475 -7.71691,-6.605389 -9.86031,-5.932257 -9.38359,2.946917 0.28264,5.264272 -0.0823,6.951887 -1.5034,6.951887 -1.03216,0 -2.44928,-0.75 -3.14915,-1.666667 -1.25441,-1.642985 -4.38736,-17.097576 -4.38736,-21.642498 0,-2.372963 1.2782,-2.369597 9,0.02369 2.47112,0.765899 3,0.422925 3,-1.945473 0,-9.299927 -18.31461,-28.102388 -27.37324,-28.102388 -1.87996,0 -2.04742,1.166499 -1.24422,8.666667 0.96509,9.01192 -0.38812,11.372881 -3.10315,5.414053 -0.86573,-1.900061 -3.31113,-3.793444 -5.88069,-4.553201 -2.41928,-0.715323 -12.40051,-4.051645 -22.1805,-7.414052 -17.899373,-6.153884 -24.218197,-7.362885 -24.218197,-4.633745 0,0.813846 3,4.762198 6.666667,8.774116 8.029499,8.78555 8.796945,11.981041 1.237145,5.151215 -4.631197,-4.184009 -5.736757,-4.647923 -7.519076,-3.15515 -1.149254,0.962553 -4.807341,2.350097 -8.12908,3.08343 -3.32174,0.733334 -6.277414,2.051111 -6.568166,2.928394 -0.290752,0.877284 1.876324,2.821982 4.815725,4.321553 5.204415,2.655095 12.6043,10.397594 17.83846,18.664384 3.902244,6.163172 0.587687,4.903406 -3.815279,-1.450075 -5.504336,-7.94276 -10.123784,-9.442804 -31.320677,-10.17057 -15.912599,-0.546336 -18.229851,-0.355962 -18.964317,1.558026 -0.731562,1.906419 9.794344,15.500113 26.109884,33.719645 1.430628,1.59758 2.369198,3.600523 2.085712,4.450983 C 63.486845,84.872797 58.197279,79.665687 52.015739,72.45098 45.8342,65.236274 35.801848,54.104156 29.721621,47.71294 23.641396,41.321725 18.666667,35.471725 18.666667,34.712941 c 0,-0.879252 6.23471,-1.379608 17.190681,-1.379608 14.722461,0 17.311499,-0.314844 18.032147,-2.192824 0.474978,-1.237771 -0.146027,-3.283991 -1.425843,-4.698172 C 49.221855,22.860192 51.352765,21.4127 62.110831,19.889169 73.283293,18.306953 74.46018,17.342193 72.163963,11.648045 69.002117,3.8073163 69.169725,1.3333333 72.862764,1.3333333 c 1.856884,0 2.935011,0.5818507 2.470569,1.3333333 -0.453225,0.7333333 0.367004,1.3333333 1.822732,1.3333333 5.423936,0 42.183255,13.7214681 45.852725,17.1158381 5.31543,4.91694 7.15258,2.560408 4.99981,-6.413326 -0.90334,-3.765548 -1.23839,-7.2505023 -0.74455,-7.7443428 1.38479,-1.384787 14.73095,6.3307208 22.09722,12.7745588 l 6.60469,5.777622 17.06047,-0.927416 17.06045,-0.927414 3.24672,4.738269 c 1.78569,2.606048 3.71615,4.448145 4.28989,4.09355 0.57375,-0.354596 1.04318,0.390692 1.04318,1.656194 0,1.265501 -0.39454,1.906381 -0.87674,1.424177 -0.4822,-0.482203 -3.55501,3.317797 -6.82848,8.444445 -6.18464,9.685927 -7.81125,10.920621 -9.20596,6.987844 -0.45512,-1.283333 -1.74212,-3.397511 -2.85998,-4.698172 -1.55815,-1.812929 -1.66644,-2.730894 -0.464,-3.933333 C 179.29417,41.505822 180,39.685501 180,38.323335 c 0,-2.089146 -0.88665,-2.412512 -5.66667,-2.066666 -5.0961,0.368716 -5.65097,0.74562 -5.5108,3.74333 0.28199,6.03031 6.14654,19.076848 13.51536,30.066845 6.97211,10.398333 9.91671,19.776844 10.6541,33.933156 1.60276,30.76965 -7.02006,49.8951 -29.8359,66.17614 -8.09829,5.77883 -22.88269,12.67338 -30.99878,14.45598 C 129.87079,185.13432 128,186.09754 128,186.77261 128,187.47065 118.51185,188 106,188 92.222223,188 84,187.50168 84,186.66666 Z M 55.944435,137 c -4.885935,-10.32793 -5.143679,-13.25814 -0.807914,-9.1849 1.725087,1.62064 3.867883,5.38768 4.76177,8.3712 0.893886,2.98352 1.946644,6.26215 2.339464,7.28582 0.392818,1.02366 0.02455,1.86121 -0.818387,1.86121 -0.842932,0 -3.306652,-3.75 -5.474933,-8.33333 z m 67.388895,5.51828 c -9.09701,-2.07047 -12.54912,-4.0075 -14.65107,-8.22096 -1.11494,-2.23495 -1.84901,-4.24168 -1.63128,-4.45941 0.21773,-0.21773 3.92859,0.52665 8.24637,1.65417 6.09094,1.59057 8.59399,1.71129 11.16772,0.53862 2.93306,-1.33639 3.67172,-1.07825 6.37813,2.22894 3.98429,4.86872 3.92252,6.84857 -0.26333,8.44002 -1.88108,0.71519 -3.53108,1.24007 -3.66667,1.1664 -0.13559,-0.0737 -2.64653,-0.68017 -5.57987,-1.34778 z M 28.89646,84.333332 C 18.956367,74.906941 12.374008,65.995479 14.492328,64.832438 c 0.462553,-0.25396 6.492855,0.635865 13.400672,1.977389 10.567827,2.052312 13.255631,3.11369 16.948117,6.692589 2.413648,2.3394 4.12472,4.680181 3.80238,5.201737 -0.322338,0.521555 -3.14899,0.452615 -6.28145,-0.153201 -3.132459,-0.605816 -7.04538,-1.127615 -8.69538,-1.159552 -4.351512,-0.08423 -3.829412,3.98698 1.114741,8.692477 4.187015,3.984905 7.309468,8.582788 5.828631,8.582788 -0.449415,0 -5.720526,-4.65 -11.713579,-10.333333 z m 121.72117,3.896661 c -7.82568,-2.884963 -11.3143,-5.509953 -12.26663,-9.229994 -0.91727,-3.583008 -0.66408,-3.609814 7.74481,-0.819962 6.65808,2.208982 11.78487,5.907683 14.07354,10.153295 1.61786,3.001272 -1.21331,2.970641 -9.55172,-0.103334 z"
       style="fill:#ff0000;fill-opacity:1;stroke:none;stroke-width:1.33333337" />
  </g>
</svg>
