<?xml version="1.0" encoding="UTF-8" standalone="no"?>
<svg
   xmlns:dc="http://purl.org/dc/elements/1.1/"
   xmlns:cc="http://creativecommons.org/ns#"
   xmlns:rdf="http://www.w3.org/1999/02/22-rdf-syntax-ns#"
   xmlns:svg="http://www.w3.org/2000/svg"
   xmlns="http://www.w3.org/2000/svg"
   xmlns:sodipodi="http://sodipodi.sourceforge.net/DTD/sodipodi-0.dtd"
   xmlns:inkscape="http://www.inkscape.org/namespaces/inkscape"
   viewBox="0 0 200 261.33334"
   height="261.33334"
   width="200"
   id="svg3965"
   version="1.1"
   sodipodi:docname="scarf.svg"
   inkscape:version="0.92.2 5c3e80d, 2017-08-06">
  <sodipodi:namedview
     pagecolor="#ffffff"
     bordercolor="#666666"
     borderopacity="1"
     objecttolerance="10"
     gridtolerance="10"
     guidetolerance="10"
     inkscape:pageopacity="0"
     inkscape:pageshadow="2"
     inkscape:window-width="1447"
     inkscape:window-height="864"
     id="namedview6"
     showgrid="false"
     inkscape:zoom="0.90306119"
     inkscape:cx="-98.214697"
     inkscape:cy="130.66667"
     inkscape:window-x="0"
     inkscape:window-y="0"
     inkscape:window-maximized="0"
     inkscape:current-layer="svg3965" />
  <metadata
     id="metadata3971">
    <rdf:RDF>
      <cc:Work
         rdf:about="">
        <dc:format>image/svg+xml</dc:format>
        <dc:type
           rdf:resource="http://purl.org/dc/dcmitype/StillImage" />
        <dc:title></dc:title>
      </cc:Work>
    </rdf:RDF>
  </metadata>
  <defs
     id="defs3969" />
  <g
     id="g824"
     transform="translate(-16.610175,-18.824859)">
    <path
       style="fill:#fefefe;stroke-width:1.33333337"
       d="M 18.82486,152.81356 V 22.146894 h 100 100 V 152.81356 283.48023 h -100 -100 z"
       id="path832"
       inkscape:connector-curvature="0" />
    <path
       style="fill:#a0a0a0;stroke-width:1.33333337"
       d="m 133.49153,281.63574 c 0,-1.01447 -1.2,-2.15829 -2.66667,-2.54184 -1.52893,-0.39983 -2.66667,-1.81868 -2.66667,-3.32559 0,-1.44552 -0.9,-3.37516 -2,-4.28808 -1.37889,-1.14437 -1.95872,-3.99006 -1.86709,-9.16325 0.18644,-10.52567 1.35805,-13.72081 6.2368,-17.0086 3.64869,-2.45885 3.97383,-3.10313 2.27676,-4.51159 -1.62945,-1.35232 -1.98364,-6.39218 -2.0015,-28.47981 -0.0119,-14.76021 -0.58277,-33.73675 -1.26853,-42.17008 -1.26728,-15.58488 -5.22189,-53.1414 -6.10726,-58 -0.47477,-2.60538 -1.5368,-2.66667 -46.21089,-2.66667 H 31.491527 l -3.411371,-3.33333 c -1.876254,-1.83334 -4.726254,-5.90181 -6.333333,-9.041063 -2.717184,-5.307712 -2.921963,-7.562273 -2.921963,-32.170074 0,-22.19538 0.330932,-26.736998 2.052332,-28.165634 1.71348,-1.422062 2.428938,-1.209113 4.333333,1.289769 1.254551,1.646179 3.744919,4.811187 5.534152,7.033351 3.138334,3.897702 3.25598,4.799355 3.333334,25.546973 l 0.08018,21.506674 29.333334,-0.140919 c 42.021905,-0.201875 91.930545,-2.688961 96.270295,-4.797416 4.50817,-2.190289 5.4652,-5.853232 6.55732,-25.09749 l 0.8722,-15.369156 -3.84991,-1.759784 c -4.43357,-2.026576 -30.72029,-5.400523 -42.51657,-5.457079 -13.32378,-0.06388 -57.327486,5.095633 -69.503062,8.149357 -7.084633,1.776879 -11.758969,2.374555 -12.296473,1.57227 -0.476924,-0.711863 -1.87056,-1.663827 -3.09697,-2.115478 -1.435193,-0.528538 -1.984361,-1.759881 -1.541012,-3.45525 0.463339,-1.771808 -0.225241,-3.123263 -2.103497,-4.128475 -3.451181,-1.847016 -3.601907,-4.873481 -0.329924,-6.624593 7.406851,-3.964027 56.770104,-10.751547 78.306038,-10.767196 22.24153,-0.01616 40.34168,2.419847 49.55487,6.66934 11.31047,5.216845 19.60746,12.385354 21.71051,18.757648 2.13929,6.482124 -0.18869,43.144281 -3.09137,48.68424 -1.64854,3.146337 -1.51375,4.690645 1.19685,13.712815 1.68004,5.59194 5.12683,17.66717 7.65955,26.83383 13.4253,48.5902 27.05081,91.90691 29.90441,95.06882 2.02339,2.24199 1.91408,2.60456 -1.63935,5.43796 l -3.80728,3.03583 3.65663,7.72948 c 3.23139,6.8306 3.42672,7.95937 1.67967,9.70642 -1.74706,1.74706 -2.44106,1.63383 -5.96782,-0.97361 -2.19497,-1.62281 -4.6352,-4.36473 -5.4227,-6.09315 -1.28692,-2.82448 -1.842,-2.9996 -5.4838,-1.73005 -4.78131,1.66677 -4.80714,1.83543 -1.47184,9.61635 2.17078,5.06424 2.28901,6.2607 0.74526,7.5419 -2.3124,1.91912 -9.32782,-2.8939 -12.15622,-8.33994 -1.95507,-3.76447 -3.11314,-4.18216 -7.97592,-2.87682 -2.63102,0.70627 -2.69731,1.06 -1.05854,5.64847 0.96155,2.69225 1.77462,6.26384 1.8068,7.93685 0.0729,3.79202 -3.79885,5.54819 -5.50612,2.49748 -0.679,-1.21329 -1.95472,-2.22146 -2.83494,-2.24038 -0.88023,-0.0189 -2.69983,-2.41892 -4.04356,-5.33334 -1.90508,-4.13194 -3.18448,-5.29893 -5.80932,-5.29893 -2.7117,0 -3.16472,0.45367 -2.33006,2.33333 2.26772,5.10695 2.20674,13.09874 -0.11466,15.02534 -1.95999,1.62664 -2.4784,1.57265 -3.92743,-0.409 -0.91815,-1.25566 -2.35323,-2.283 -3.18904,-2.283 -1.41887,0 -1.97525,-1.49715 -1.73425,-4.66667 0.15947,-2.09741 -6.38248,-6.31201 -8.52275,-5.49072 -1.36559,0.52403 -1.92935,2.92101 -1.92935,8.2032 0,4.10456 -0.62111,8.62339 -1.38024,10.04184 -1.58676,2.96489 -5.28642,3.47895 -5.28642,0.73452 z m 33.4833,-44.15388 c 9.6734,-1.95129 19.55508,-4.86568 23.85003,-7.03404 6.45383,-3.25832 7.38509,-4.24005 7.76488,-8.18571 0.23735,-2.46585 -1.08307,-9.35053 -2.93424,-15.29929 -11.47608,-36.87839 -28.83064,-96.33925 -28.83064,-98.78066 0,-1.25563 -3.18851,-1.52006 -13,-1.07814 -7.15,0.32204 -13.56454,0.72661 -14.25454,0.89905 -1.69141,0.4227 -1.11091,11.4704 2.10935,40.14383 1.62295,14.45084 2.98499,37.6606 3.42325,58.33333 0.66607,31.41883 0.92426,34.33334 3.04154,34.33334 1.27253,0 9.7462,-1.49927 18.83037,-3.33171 z"
       id="path830"
       inkscape:connector-curvature="0" />
    <path
       style="fill:#5f5f5f;stroke-width:1.33333337"
       d="m 134.82486,281.43839 c 0,-1.07698 -1.2,-1.95816 -2.66667,-1.95816 -2.07407,0 -2.66666,-0.88889 -2.66666,-4 0,-2.66666 -0.66667,-4 -2,-4 -2.17419,0 -2.48211,-1.54965 -2.11947,-10.66666 0.44909,-11.29066 1.34928,-13.4257 6.5859,-15.62023 l 4.8669,-2.0396 -3,-1.99939 c -2.96369,-1.97517 -3.00078,-2.37264 -3.06474,-32.83674 -0.0677,-32.23446 -0.64328,-41.74898 -4.74512,-78.43519 l -2.48936,-22.26447 -6.01706,0.93114 c -3.30938,0.51212 -23.914389,0.93114 -45.788911,0.93114 -34.49873,0 -39.978886,-0.27612 -41.333334,-2.08263 -0.858811,-1.14544 -2.611475,-2.47661 -3.894808,-2.95815 -1.283334,-0.48154 -2.333334,-1.89711 -2.333334,-3.14572 0,-1.24861 -1.05,-3.429357 -2.333333,-4.846113 -2.029259,-2.240232 -2.384609,-6.076561 -2.726799,-29.438321 -0.311558,-21.270475 -0.0089,-27.387615 1.45414,-29.38541 1.752029,-2.392495 2.048272,-2.254551 5.726798,2.666667 2.133557,2.854322 4.629194,5.982532 5.545861,6.95158 1.195343,1.263647 1.666667,8.007611 1.666667,23.847581 v 22.085675 l 41,-0.822348 c 43.943223,-0.881383 82.320303,-2.737303 85.819403,-4.150237 3.91736,-1.581828 5.46882,-7.862394 6.18653,-25.04409 l 0.70964,-16.988182 -4.56033,-1.905427 c -5.73774,-2.397376 -26.75607,-4.785332 -42.10269,-4.783411 -16.88476,0.0021 -59.408245,4.787985 -70.702343,7.957303 -11.528984,3.235232 -11.016877,3.202327 -11.016877,0.707898 0,-1.1 -0.940432,-2 -2.089851,-2 -1.482813,0 -1.844101,-0.774284 -1.24381,-2.665632 0.646766,-2.037782 0.03984,-2.97215 -2.576818,-3.966999 -7.315081,-2.78119 -2.140004,-6.825741 12.577146,-9.829594 29.489934,-6.019062 69.075703,-8.030342 96.666663,-4.911457 15.29096,1.728491 26.70374,7.204941 33.99786,16.313971 l 5.65312,7.059711 -0.67634,20.666667 c -0.43172,13.19198 -1.3902,22.695762 -2.65009,26.276885 -1.78716,5.079893 -1.75015,6.340273 0.39165,13.333333 1.30096,4.24771 4.26847,14.92312 6.59444,23.72312 4.30878,16.30166 5.84192,21.61258 16.7433,58 8.75136,29.21097 11.05741,36.1672 13.3551,40.28595 1.8678,3.34812 1.81574,3.82261 -0.69498,6.33333 -3.37832,3.37832 -3.38418,4.82619 -0.0473,11.73253 1.46667,3.03566 2.66667,6.41295 2.66667,7.5051 0,3.08805 -2.89385,4.12638 -4.6826,1.68013 -0.88625,-1.21204 -2.2548,-2.20371 -3.0412,-2.20371 -0.78641,0 -1.79351,-1.14581 -2.23799,-2.54625 -1.41437,-4.45629 -3.86786,-5.60681 -8.50749,-3.98943 -2.30856,0.80478 -4.19739,1.73351 -4.19739,2.06386 0,0.33036 1.2,3.08436 2.66667,6.12001 3.10628,6.42925 3.31557,8.48417 0.95633,9.38949 -2.24052,0.85978 -8.16145,-4.29964 -10.80838,-9.41826 -1.63339,-3.1586 -2.76095,-3.90346 -5.12126,-3.38302 -6.2995,1.38902 -6.22377,1.23216 -4.09746,8.48567 1.82377,6.22151 1.81678,7.10335 -0.0712,8.99137 -1.90223,1.90223 -2.1717,1.88914 -2.95164,-0.14338 -0.47218,-1.2302 -1.6407,-2.23672 -2.59682,-2.23672 -0.95613,0 -3.06328,-2.73682 -4.68256,-6.08182 -2.02262,-4.17817 -3.55468,-5.84753 -4.89466,-5.33333 -1.07278,0.41167 -2.82254,0.74848 -3.88836,0.74848 -1.50274,0 -1.62795,0.57909 -0.55762,2.57901 2.2167,4.14194 1.77092,14.75432 -0.61976,14.75432 -1.1,0 -2,-0.53002 -2,-1.17782 0,-0.6478 -1.2,-1.49163 -2.66666,-1.87518 -1.80198,-0.47122 -2.66667,-1.81868 -2.66667,-4.1555 0,-2.18503 -0.7363,-3.45816 -2,-3.45816 -1.1,0 -2,-0.94043 -2,-2.08986 0,-1.55158 -0.77267,-1.85233 -3,-1.16769 -1.65,0.50719 -3.13513,1.03275 -3.3003,1.16793 -0.16517,0.13518 -0.69833,4.52835 -1.1848,9.76263 -0.56989,6.13183 -1.53014,9.7646 -2.6997,10.2134 -1.02358,0.39279 -1.8152,-0.1574 -1.8152,-1.26159 z m 30.90108,-43.23249 c 22.48048,-4.20311 34.43225,-9.88587 34.43225,-16.37168 0,-1.38297 -3.84604,-14.92839 -8.54674,-30.10091 -8.5641,-27.6424 -11.97684,-39.22405 -20.26455,-68.77067 -2.44536,-8.71801 -4.63672,-16.04153 -4.86968,-16.2745 -0.23297,-0.23297 -6.8668,-0.0587 -14.74184,0.38726 l -14.31826,0.81083 0.7824,10.13033 c 0.43032,5.57169 1.33823,15.23034 2.01757,21.46367 3.43502,31.51796 5.2433,58.9246 5.25807,79.69207 l 0.0164,23.0254 3,-0.66523 c 1.65,-0.36586 9.40549,-1.86282 17.23441,-3.32657 z"
       id="path828"
       inkscape:connector-curvature="0" />
    <path
       style="fill:#030303;stroke-width:1.33333337"
       d="m 134.82486,280.19957 c 0,-1.32662 -0.90658,-2.01735 -2.33333,-1.77779 -1.61614,0.27136 -2.47522,-0.63277 -2.79494,-2.94155 -0.25389,-1.83333 -1.30389,-3.81314 -2.33334,-4.39958 -2.26577,-1.29074 -2.49295,-11.30955 -0.42529,-18.75612 1.06261,-3.82692 2.43525,-5.53455 5.3259,-6.62564 3.78144,-1.42734 5.7343,-6.58666 2.22767,-5.88532 -1.28189,0.25637 -1.86373,-7.67003 -2.52022,-34.33334 -0.80933,-32.87064 -2.33487,-54.04029 -5.18851,-72 -0.69912,-4.4 -1.28385,-10.7 -1.29941,-14 -0.0588,-12.47504 4.5715,-11.39687 -46.629199,-10.85769 l -45.16744,0.47564 -4.764279,-3.63389 c -2.620353,-1.99865 -4.764279,-4.68922 -4.764279,-5.979053 0,-1.289836 -0.9,-3.092089 -2,-4.005008 -1.660579,-1.378158 -2,-6.370681 -2,-29.417905 0,-17.207984 0.510651,-28.07365 1.343561,-28.588418 1.308511,-0.808704 5.323106,2.247202 5.323106,4.051943 0,0.496519 1.5,2.685412 3.333333,4.864204 3.24795,3.85997 3.333334,4.501403 3.333334,25.041144 v 21.0797 l 3.850106,0.565076 c 5.981786,0.87794 95.220717,-1.435185 110.029157,-2.85202 8.10406,-0.775376 13.9416,-1.993164 15.0981,-3.149656 2.66536,-2.665365 4.10073,-10.068634 5.154,-26.583103 l 0.91345,-14.322369 -4.95877,-2.07191 c -4.99746,-2.08807 -18.8633,-4.052458 -36.08604,-5.112351 -13.76001,-0.846794 -62.375999,4.080729 -75.904863,7.693415 -8.941951,2.387817 -11.428474,2.662037 -11.428474,1.260361 0,-0.985295 -1.229814,-1.791445 -2.73292,-1.791445 -2.16835,0 -2.473864,-0.462908 -1.478901,-2.240807 1.331396,-2.379075 -0.8934,-5.759194 -3.790706,-5.759194 -0.839485,0 -1.331445,-1.011996 -1.093242,-2.24888 1.388849,-7.211713 73.270816,-14.820243 106.185666,-11.239491 20.64589,2.246032 31.89582,7.551524 40.8189,19.250286 2.92872,3.839748 3.42454,5.850688 3.42454,13.889334 0,14.948526 -2.62235,36.71437 -4.83182,40.104652 -1.34634,2.065892 -1.58233,3.611775 -0.7124,4.666665 0.71548,0.86759 3.80048,10.87744 6.85558,22.2441 6.62358,24.64356 18.14362,63.72872 25.42933,86.27657 5.3342,16.50833 6.34691,23.86656 3.91111,28.41789 -1.03247,1.92917 -0.50331,4.24189 2.25948,9.87509 1.98422,4.04576 3.19001,7.7736 2.67953,8.2841 -1.59707,1.59706 -7.94192,-2.66147 -10.56503,-7.09103 -2.43276,-4.10813 -2.63921,-4.18293 -6.76754,-2.45199 -5.30711,2.22519 -5.68647,3.983 -2.29364,10.62786 1.62037,3.1735 2.20801,5.75557 1.47637,6.48721 -1.77883,1.77883 -10.3508,-5.22347 -11.37116,-9.28889 -0.78413,-3.12426 -1.2716,-3.33352 -5.79631,-2.48839 -2.71709,0.50751 -5.09016,1.06923 -5.27348,1.24825 -0.18332,0.17903 0.35239,3.73982 1.19046,7.91286 0.83806,4.17305 1.24434,7.86677 0.90284,8.20828 -1.38227,1.38226 -7.79879,-2.90419 -9.00822,-6.0178 -2.49514,-6.42363 -4.89673,-8.32647 -9.29081,-7.36136 -3.91724,0.86036 -3.98781,1.00189 -2.00725,4.02461 2.37069,3.61813 2.06444,12.85089 -0.45371,13.67812 -0.91667,0.30113 -1.66667,-0.40248 -1.66667,-1.5636 0,-1.22221 -1.12281,-2.11111 -2.66666,-2.11111 -2.08551,0 -2.66667,-0.88889 -2.66667,-4.07869 0,-2.39867 -0.55308,-3.73687 -1.34275,-3.24881 -0.73851,0.45641 -1.70271,-0.10814 -2.14265,-1.25466 -0.95722,-2.49448 -5.25357,-2.75968 -6.76924,-0.41784 -0.59328,0.91667 -1.37869,5.51958 -1.74536,10.22867 -0.40112,5.1516 -1.33053,8.78073 -2.33333,9.11112 -0.91667,0.302 -1.66667,-0.4272 -1.66667,-1.62045 z m 31.31837,-41.46038 c 24.98634,-4.97253 34.01496,-9.40186 34.01496,-16.6873 0,-2.15239 -3.93846,-16.96154 -8.75213,-32.90921 -14.33309,-47.48547 -19.01456,-63.33168 -20.58045,-69.66245 -3.47651,-14.05517 -3.75931,-14.52414 -8.40598,-13.9396 -2.34378,0.29485 -8.91144,0.90307 -14.59477,1.3516 l -10.33333,0.81552 0.0128,6.88624 c 0.007,3.78743 0.93248,14.98624 2.05645,24.88624 3.31156,29.16839 5.87242,66.04591 5.90261,85 0.0219,13.75119 0.41914,17.66667 1.79234,17.66667 0.97031,0 9.46969,-1.53347 18.8875,-3.40771 z"
       id="path826"
       inkscape:connector-curvature="0" />
  </g>
</svg>
